<svg
    xmlns="http://www.w3.org/2000/svg"
    viewBox="0 0 24 24"
    id="vector">
    <path
        id="path"
        d="M 22 5.72 L 17.4 1.86 L 16.11 3.39 L 20.71 7.25 L 22 5.72 Z M 7.88 3.39 L 6.6 1.86 L 2 5.71 L 3.29 7.24 L 7.88 3.39 Z M 12.5 8 L 11 8 L 11 14 L 15.75 16.85 L 16.5 15.62 L 12.5 13.25 L 12.5 8 Z M 12 4 C 7.03 4 3 8.03 3 13 C 3 17.97 7.02 22 12 22 C 16.97 22 21 17.97 21 13 C 21 8.03 16.97 4 12 4 Z M 12 20 C 8.13 20 5 16.87 5 13 C 5 9.13 8.13 6 12 6 C 15.87 6 19 9.13 19 13 C 19 16.87 15.87 20 12 20 Z"
        fill="#000000"/>
</svg>
