<svg xmlns="http://www.w3.org/2000/svg" viewBox="0 0 512 512"
    id="vector">
    <path
        id="path"
        d="M 499.628 407.468 C 489.5 419.628 474.494 426.662 458.668 426.668 L 53.334 426.668 C 37.508 426.662 22.502 419.628 12.374 407.468 L 208.001 244.481 L 228.268 258.348 C 244.963 269.868 267.04 269.868 283.735 258.348 L 304.002 244.481 L 499.628 407.468 Z"
        fill="#1e88e5"/>
    <path
        id="path_1"
        d="M 502.614 108.588 L 304.001 244.481 L 283.734 258.348 C 267.039 269.868 244.962 269.868 228.267 258.348 L 208 244.481 L 9.388 108.374 C 19.382 93.963 35.797 85.357 53.335 85.334 L 458.668 85.334 C 476.285 85.241 492.781 93.969 502.614 108.588 Z"
        fill="#64b5f6"/>
    <path
        id="path_2"
        d="M 208.001 244.481 L 12.374 407.468 C 4.367 397.898 -0.014 385.813 0.001 373.335 L 0.001 138.668 C -0.064 127.845 3.215 117.265 9.388 108.375 L 208.001 244.481 Z"
        fill="#2196f3"/>
    <path
        id="path_3"
        d="M 512.001 138.668 L 512.001 373.335 C 512.015 385.813 507.635 397.898 499.628 407.468 L 304.001 244.481 L 502.614 108.588 C 508.756 117.414 512.033 127.915 512.001 138.668 Z"
        fill="#2196f3"/>
</svg>
