<svg
    xmlns="http://www.w3.org/2000/svg"
    viewBox="0 0 474 474"
    id="vector">
    <path
        id="path"
        d="M 255.204 102.3 C 254.598 90.979 243.028 92.905 231.739 92.905 C 240.078 95.126 247.967 98.216 255.204 102.3 Z"
        fill="#ffffff"/>
    <path
        id="path_1"
        d="M 134.524 73.928 C 90.699 73.928 70.527 129.399 105.561 157.298 C 117.504 125.408 141.279 102.51 172.447 93.472 C 163.921 81.685 150.146 73.928 134.524 73.928 Z"
        fill="#ffffff"/>
    <path
        id="path_2"
        d="M 43.987 148.617 C 45.773 154.348 48.087 159.846 50.836 165.055 L 36.44 179.459 C 32.574 183.325 32.574 189.6 36.44 193.474 L 61.815 218.857 C 63.663 220.705 66.195 221.745 68.834 221.745 C 71.444 221.745 73.959 220.705 75.839 218.857 L 90.219 204.453 C 92.377 205.595 94.769 206.295 97.004 207.28 C 97.004 207.116 96.988 206.946 96.988 206.782 C 96.988 195.011 98.34 183.907 100.747 173.48 C 83.385 162.306 71.8 142.91 71.8 120.765 C 71.8 86.173 99.939 58.026 134.523 58.026 C 157.941 58.026 178.16 71.063 188.953 90.11 C 200.476 88.681 211.3 88.681 224.329 91.143 C 222.653 86.073 220.681 81.111 218.211 76.46 L 232.607 62.049 C 234.485 60.193 235.525 57.669 235.525 55.045 C 235.525 52.42 234.485 49.897 232.607 48.041 L 207.246 22.674 C 205.306 20.733 202.774 19.77 200.243 19.77 C 197.711 19.77 195.18 20.733 193.254 22.674 L 178.812 37.085 C 173.595 34.321 168.113 32.007 162.368 30.26 L 162.368 9.9 C 162.368 4.434 157.957 0 152.475 0 L 116.587 0 C 111.136 0 106.678 4.434 106.678 9.9 L 106.678 30.259 C 100.948 32.006 95.465 34.32 90.232 37.084 L 75.839 22.689 C 73.897 20.748 71.366 19.785 68.834 19.785 C 66.303 19.785 63.757 20.748 61.831 22.681 L 36.44 48.048 C 34.592 49.912 33.552 52.427 33.552 55.06 C 33.552 57.692 34.592 60.208 36.44 62.064 L 50.836 76.467 C 48.086 81.685 45.773 87.175 44.019 92.905 L 23.675 92.905 C 18.193 92.905 13.766 97.346 13.766 102.82 L 13.766 138.709 C 13.766 144.167 18.193 148.617 23.675 148.617 L 43.987 148.617 Z"
        fill="#ffffff"/>
    <path
        id="path_3"
        d="M 354.871 340.654 C 370.743 331.949 381.644 315.287 381.644 295.951 C 381.644 267.734 358.677 244.783 330.46 244.783 C 320.537 244.783 311.342 247.749 303.485 252.656 C 298.78 271.384 291.372 289.298 281.682 304.858 C 309.152 310.022 334.357 322.531 354.871 340.654 Z"
        fill="#ffffff"/>
    <path
        id="path_4"
        d="M 460.782 276.588 C 460.782 270.679 455.983 265.895 450.097 265.895 L 428.14 265.895 C 426.244 259.706 423.729 253.774 420.747 248.145 L 436.291 232.601 C 438.311 230.597 439.428 227.88 439.428 225.046 C 439.428 222.211 438.31 219.493 436.291 217.483 L 408.928 190.112 C 406.848 188.022 404.099 186.974 401.367 186.974 C 398.633 186.974 395.9 188.022 393.82 190.112 L 378.244 205.664 C 372.621 202.682 366.705 200.183 360.493 198.295 L 360.493 176.337 C 360.493 170.436 355.725 165.652 349.824 165.652 L 311.11 165.652 C 308.516 165.652 306.233 166.692 304.371 168.23 C 307.631 180.125 309.417 193.023 309.417 206.782 C 309.417 215.517 308.735 224.386 307.461 233.205 C 314.666 230.549 322.337 228.881 330.46 228.881 C 367.45 228.881 397.546 258.97 397.546 295.951 C 397.546 319.588 385.201 340.304 366.674 352.254 C 380.154 367.038 390.869 384.578 397.842 404.23 C 398.99 404.626 400.186 404.914 401.382 404.914 C 404.115 404.914 406.849 403.874 408.945 401.784 L 436.324 374.413 C 438.328 372.409 439.43 369.692 439.43 366.858 C 439.43 364.024 438.328 361.307 436.324 359.295 L 420.748 343.743 C 423.73 338.122 426.245 332.188 428.141 325.993 L 450.098 325.993 C 452.924 325.993 455.673 324.875 457.661 322.855 C 459.665 320.859 460.799 318.135 460.799 315.3 L 460.782 276.588 Z"
        fill="#ffffff"/>
    <path
        id="path_5"
        d="M 376.038 413.906 C 359.436 365.058 315.567 331.461 264.925 326.888 C 247.967 344.846 226.971 356.239 203.194 356.239 C 179.435 356.239 158.423 344.847 141.481 326.888 C 90.809 331.461 46.938 365.058 30.336 413.914 L 21.159 440.927 C 18.534 448.7 19.791 457.265 24.575 463.934 C 29.358 470.605 37.061 474.565 45.26 474.565 L 361.113 474.565 C 369.328 474.565 377.031 470.605 381.815 463.934 C 386.582 457.265 387.856 448.7 385.215 440.927 L 376.038 413.906 Z"
        fill="#ffffff"/>
    <path
        id="path_6"
        d="M 120.842 206.782 C 120.842 267.371 157.725 332.385 203.194 332.385 C 248.681 332.385 285.562 267.371 285.562 206.782 C 285.563 81.188 120.842 80.939 120.842 206.782 Z"
        fill="#ffffff"/>
</svg>
