<svg
    xmlns="http://www.w3.org/2000/svg"
    viewBox="0 0 24 24"
    id="vector">
    <path
        id="path"
        d="M 12 3 C 7.03 3 3 7.03 3 12 C 3 16.97 7.03 21 12 21 C 12.83 21 13.5 20.33 13.5 19.5 C 13.5 19.11 13.35 18.76 13.11 18.49 C 12.88 18.23 12.73 17.88 12.73 17.5 C 12.73 16.67 13.4 16 14.23 16 L 16 16 C 18.76 16 21 13.76 21 11 C 21 6.58 16.97 3 12 3 Z M 6.5 12 C 5.67 12 5 11.33 5 10.5 C 5 9.67 5.67 9 6.5 9 C 7.33 9 8 9.67 8 10.5 C 8 11.33 7.33 12 6.5 12 Z M 9.5 8 C 8.67 8 8 7.33 8 6.5 C 8 5.67 8.67 5 9.5 5 C 10.33 5 11 5.67 11 6.5 C 11 7.33 10.33 8 9.5 8 Z M 14.5 8 C 13.67 8 13 7.33 13 6.5 C 13 5.67 13.67 5 14.5 5 C 15.33 5 16 5.67 16 6.5 C 16 7.33 15.33 8 14.5 8 Z M 17.5 12 C 16.67 12 16 11.33 16 10.5 C 16 9.67 16.67 9 17.5 9 C 18.33 9 19 9.67 19 10.5 C 19 11.33 18.33 12 17.5 12 Z"
        fill="#ffffff"/>
</svg>
