<svg
    xmlns="http://www.w3.org/2000/svg"
    viewBox="0 0 500 500"
    id="vector">
    <path
        id="path"
        d="M 133.685 346.193 C 133.602 345.312 133.602 344.16 133.685 343.632 C 133.768 343.104 133.308 342.671 132.662 342.671 C 131.06 342.671 122.888 317.759 119.849 303.609 C 116.453 287.797 115.484 269.535 117.013 250.148 C 118.275 234.15 124.23 205.635 126.309 205.635 C 126.883 205.635 127.021 204.771 126.616 203.714 C 126.211 202.657 126.551 201.793 127.372 201.793 C 128.193 201.793 128.55 201.283 128.165 200.659 C 127.157 199.028 129.989 191.547 131.615 191.547 C 132.368 191.547 132.623 191.186 132.181 190.744 C 131.739 190.302 132.256 188.244 133.328 186.171 L 135.278 182.4 L 140.001 185.858 C 142.599 187.76 145.797 190.539 147.109 192.032 C 148.421 193.526 149.617 194.46 149.766 194.108 C 150.18 193.133 181.223 217.292 181.223 218.589 C 181.223 219.212 181.655 219.585 182.184 219.417 C 183.84 218.891 197.873 230.185 197.873 232.042 C 197.873 233.014 197.441 233.81 196.912 233.812 C 196.384 233.813 195.804 235.874 195.624 238.392 C 195.444 240.909 194.796 243.934 194.185 245.113 C 192.489 248.383 193.24 280.563 195.273 291.708 L 197.073 301.58 L 193.335 304.515 C 191.279 306.129 189.154 307.306 188.612 307.13 C 188.07 306.954 187.627 307.317 187.627 307.937 C 187.627 309.335 174.146 319.617 172.313 319.617 C 171.578 319.617 170.977 320.118 170.977 320.73 C 170.977 322.433 147.818 339.528 146.17 339.042 C 145.374 338.807 145.144 339.034 145.658 339.551 C 146.72 340.613 137.889 347.704 135.437 347.758 C 134.556 347.779 133.768 347.073 133.684 346.193 Z"
        fill="#ffcc00"
        stroke="#00000000"
        stroke-width="34.1012001"
        stroke-linecap="round"
        stroke-linejoin="round"/>
    <path
        id="path_1"
        d="M 188.908 225.867 C 184.329 222.35 176.261 216.218 170.978 212.24 C 165.695 208.262 161.085 204.702 160.732 204.329 C 160.38 203.956 154.473 199.404 147.605 194.213 C 140.737 189.023 135.118 184.199 135.118 183.495 C 135.118 181.77 147.337 161.443 152.219 155.047 C 172.143 128.944 196.855 108.727 224.45 95.955 C 242.015 87.825 240.947 88.247 252.944 84.7 C 278.337 77.192 314.48 75.065 340.795 79.53 C 361.112 82.977 392.442 94.447 405.314 103.15 C 407.094 104.354 411.142 107.013 414.308 109.061 C 422.318 114.239 434.805 123.701 434.805 124.593 C 434.805 126.47 379.442 180.353 378.679 179.218 C 378.203 178.51 375.22 176.173 372.05 174.025 C 322.357 140.35 251.46 152.29 215.482 200.392 C 212.634 204.2 207.485 212.819 204.04 219.544 C 200.595 226.269 197.654 231.882 197.505 232.016 C 197.355 232.15 193.487 229.383 188.908 225.866 Z"
        fill="#cc0000"
        stroke="#00000000"
        stroke-width="34.1012001"
        stroke-linecap="round"
        stroke-linejoin="round"/>
    <path
        id="path_2"
        d="M 292.315 452.464 C 227.826 448.201 168.297 409.977 137.361 352.967 L 133.685 346.193 L 138.663 342.081 C 141.401 339.819 149.852 333.228 157.443 327.434 C 165.034 321.64 176.298 312.966 182.473 308.159 C 188.648 303.352 194.361 299.019 195.169 298.529 C 196.114 297.956 198.574 301.634 202.065 308.839 C 220.389 346.657 253.357 369.972 295.18 374.692 C 318.059 377.274 345.595 372.567 365.054 362.75 L 372.477 359.005 L 383.624 367.633 C 389.755 372.378 403.363 382.887 413.865 390.984 L 432.959 405.707 L 427.312 410.607 C 401.155 433.306 359.797 450.184 325.85 452.013 C 318.675 452.4 311.364 452.869 309.604 453.056 C 307.843 453.243 300.063 452.976 292.314 452.464 Z"
        fill="#669900"
        stroke="#00000000"
        stroke-width="34.1012001"
        stroke-linecap="round"
        stroke-linejoin="round"/>
    <path
        id="path_3"
        d="M 412.392 391.203 C 402.531 383.449 389.419 373.276 383.256 368.596 C 377.093 363.916 372.052 359.77 372.055 359.383 C 372.058 358.996 375.572 355.841 379.865 352.371 C 393.799 341.109 404.513 323.64 409.183 304.569 L 410.202 300.407 L 357.828 300.407 L 305.454 300.407 L 305.454 263.266 L 305.454 226.125 L 395.628 226.125 L 485.802 226.125 L 487.505 235.41 C 489.625 246.97 489.613 279.259 487.484 294.493 C 483.585 322.387 473.017 351.018 458.121 374.047 C 450.457 385.894 433.738 405.496 431.411 405.362 C 430.813 405.328 422.255 398.955 412.394 391.202 Z"
        fill="#3366cc"
        stroke="#00000000"
        stroke-width="34.1012001"
        stroke-linecap="round"
        stroke-linejoin="round"/>
</svg>
